<svg width="40" height="40" viewBox="0 0 40 40" fill="none" xmlns="http://www.w3.org/2000/svg">
<g clip-path="url(#clip0_5_26)">
<path d="M21.3539 0.0409546C31.5027 0.0409546 39.8063 8.34457 39.8063 18.4934V21.3765C39.8063 31.5253 31.5027 39.829 21.3539 39.829H18.4708C8.32196 39.829 0.0183411 31.5253 0.0183411 21.3765V18.4934C0.0183411 8.34457 8.32196 0.0409546 18.4708 0.0409546H21.3539ZM20.2751 10.0413L20.0183 10.041C17.8805 10.041 15.7427 10.1116 15.7427 10.1116C12.6203 10.1116 10.089 12.6429 10.089 15.7653C10.089 15.7653 10.0241 17.601 10.0187 19.5713L10.0183 19.829C10.0183 22.035 10.089 24.3166 10.089 24.3166C10.089 27.439 12.6203 29.9703 15.7427 29.9703C15.7427 29.9703 17.7415 30.041 19.8064 30.041C22.0124 30.041 24.3646 29.9703 24.3646 29.9703C27.4871 29.9703 29.9477 27.5097 29.9477 24.3873C29.9477 24.3873 30.0183 22.1314 30.0183 19.9703L30.0171 19.4632C30.0075 17.5242 29.9476 15.6946 29.9476 15.6946C29.9476 12.5722 27.4871 10.1116 24.3646 10.1116C24.3646 10.1116 22.3293 10.0465 20.2751 10.0413ZM20.0183 11.8409C21.7714 11.8409 24.019 11.8989 24.019 11.8989C26.5795 11.8989 28.1604 13.4798 28.1604 16.0402C28.1604 16.0402 28.2183 18.2495 28.2183 19.9829C28.2183 21.755 28.1604 24.0416 28.1604 24.0416C28.1604 26.602 26.5795 28.1829 24.019 28.1829C24.019 28.1829 22.0313 28.2316 20.3067 28.2397L19.8445 28.2409C18.1513 28.2409 16.0883 28.1829 16.0883 28.1829C13.5279 28.1829 11.8763 26.5313 11.8763 23.9709C11.8763 23.9709 11.8183 21.676 11.8183 19.8671C11.8183 18.1739 11.8763 16.0402 11.8763 16.0402C11.8763 13.4798 13.5279 11.8989 16.0883 11.8989C16.0883 11.8989 18.2653 11.8409 20.0183 11.8409ZM20.0183 14.9183C17.1892 14.9183 14.8957 17.2118 14.8957 20.0409C14.8957 22.87 17.1892 25.1634 20.0183 25.1634C22.8474 25.1634 25.1409 22.87 25.1409 20.0409C25.1409 17.2118 22.8474 14.9183 20.0183 14.9183ZM20.0183 16.7075C21.8593 16.7075 23.3516 18.1999 23.3516 20.0409C23.3516 21.8819 21.8593 23.3742 20.0183 23.3742C18.1774 23.3742 16.6849 21.8819 16.6849 20.0409C16.6849 18.1999 18.1773 16.7075 20.0183 16.7075ZM25.386 13.4968C24.7024 13.4968 24.1482 14.0537 24.1482 14.7407C24.1482 15.4276 24.7024 15.9845 25.386 15.9845C26.0695 15.9845 26.6237 15.4276 26.6237 14.7407C26.6237 14.0537 26.0695 13.4968 25.386 13.4968Z" fill="#FDFEFF"/>
</g>
<defs>
<clipPath id="clip0_5_26">
<rect width="40" height="40" fill="white"/>
</clipPath>
</defs>
</svg>
