<svg width="30" height="30" viewBox="0 0 30 30" fill="none" xmlns="http://www.w3.org/2000/svg">
<path opacity="0.5" d="M15 27.5C21.9036 27.5 27.5 21.9036 27.5 15C27.5 8.09644 21.9036 2.5 15 2.5C8.09644 2.5 2.5 8.09644 2.5 15C2.5 21.9036 8.09644 27.5 15 27.5Z" stroke="#1C274C" stroke-width="3"/>
<path d="M16.28 18.2004C13.3927 19.3552 11.9491 19.9327 11.1245 19.3724C10.929 19.2395 10.7604 19.0709 10.6276 18.8754C10.0672 18.0509 10.6447 16.6072 11.7996 13.72C12.0459 13.1041 12.1691 12.7962 12.3809 12.5546C12.4349 12.4931 12.4929 12.4351 12.5544 12.3812C12.796 12.1693 13.1039 12.0462 13.7197 11.7998C16.607 10.6449 18.0506 10.0675 18.8751 10.6278C19.0706 10.7607 19.2392 10.9293 19.3721 11.1248C19.9325 11.9494 19.355 13.393 18.2001 16.2802C17.9537 16.896 17.8306 17.204 17.6187 17.4455C17.5647 17.5071 17.5069 17.565 17.4452 17.619C17.2037 17.8309 16.8957 17.954 16.28 18.2004Z" stroke="#1C274C" stroke-width="3"/>
</svg>
