<svg width="30" height="30" viewBox="0 0 30 30" fill="none" xmlns="http://www.w3.org/2000/svg">
<path opacity="0.5" d="M18.1952 19.4346L17.6259 20.034C17.6259 20.034 16.2726 21.4587 12.5789 17.5699C8.88515 13.681 10.2384 12.2563 10.2384 12.2563L10.5969 11.8789C11.4801 10.949 11.5633 9.45621 10.7928 8.36637L9.21657 6.13701C8.26285 4.78812 6.41995 4.60994 5.32681 5.7608L3.36481 7.82642C2.82279 8.39707 2.45956 9.13681 2.50361 9.95742C2.6163 12.0568 3.51339 16.5737 8.5192 21.844C13.8276 27.4327 18.8085 27.6549 20.8454 27.4539C21.4896 27.3902 22.0499 27.0429 22.5014 26.5675L24.2771 24.698C25.4757 23.4361 25.1377 21.2727 23.6041 20.39L21.216 19.0154C20.209 18.4357 18.9822 18.606 18.1952 19.4346Z" fill="#1C274C"/>
<path d="M21.25 15C24.7017 15 27.5 12.2018 27.5 8.75C27.5 5.29822 24.7017 2.5 21.25 2.5C17.7982 2.5 15 5.29822 15 8.75C15 9.7498 15.2347 10.6948 15.6521 11.5328C15.7631 11.7555 15.8 12.01 15.7358 12.2504L15.3635 13.6416C15.2019 14.2456 15.7544 14.7981 16.3584 14.6365L17.7496 14.2642C17.99 14.2 18.2445 14.2369 18.4672 14.3479C19.3052 14.7652 20.2502 15 21.25 15Z" fill="#1C274C"/>
</svg>
